<svg xmlns="http://www.w3.org/2000/svg" viewBox="0 0 120 32" fill="none">
  <path d="M8 4C8 4 4 10 4 14C4 17.3 6.7 20 10 20C13.3 20 16 17.3 16 14C16 10 12 4 12 4C12 4 11 5.5 10 7C9 5.5 8 4 8 4Z" fill="#3B82F6"/>
  <path d="M10 14.5C11.5 14.5 12.5 13 12.5 12C12.5 10.5 11 8.5 10 7.5C9 8.5 7.5 10.5 7.5 12C7.5 13 8.5 14.5 10 14.5Z" fill="#60A5FA"/>
  <path d="M24 6V18H28V12.5H32.5C35 12.5 37 10.5 37 8C37 5.5 35 4 32.5 4H26C24.9 4 24 4.9 24 6Z" fill="#3B82F6"/>
  <path d="M26 9H32C33.1 9 34 8.1 34 7C34 5.9 33.1 5 32 5H26V9Z" fill="#60A5FA"/>
  <path d="M41 4V18H45V4H41Z" fill="#3B82F6"/>
  <path d="M51 4V18H55V10L60 18H64L59 10L63.5 4H59.5L56 8.5V4H51Z" fill="#3B82F6"/>
  <path d="M69 4V18H80V14.5H73V12H79V8.5H73V7.5H80V4H69Z" fill="#3B82F6"/>
  <path d="M84 4V18H95V14.5H88V12H94V8.5H88V7.5H95V4H84Z" fill="#3B82F6"/>
  <path d="M99 4V18H110V14.5H103V12H109V8.5H103V7.5H110V4H99Z" fill="#3B82F6"/>
  <circle cx="10" cy="26" r="1.5" fill="#3B82F6" opacity="0.5"/>
  <circle cx="6" cy="24" r="1" fill="#3B82F6" opacity="0.3"/>
  <circle cx="14" cy="25" r="1" fill="#3B82F6" opacity="0.4"/>
</svg>
